<svg width="31" height="31" viewBox="0 0 31 31" fill="none" xmlns="http://www.w3.org/2000/svg">
<path d="M21.625 1.20837H9.37504C4.86472 1.20837 1.20837 4.86472 1.20837 9.37504V21.625C1.20837 26.1354 4.86472 29.7917 9.37504 29.7917H21.625C26.1354 29.7917 29.7917 26.1354 29.7917 21.625V9.37504C29.7917 4.86472 26.1354 1.20837 21.625 1.20837Z" stroke="#07013B" stroke-width="2"/>
<path d="M1.49426 22.2784L8.74218 14.614C9.07459 14.2522 9.47806 13.9628 9.92736 13.764C10.3767 13.5651 10.8621 13.4611 11.3535 13.4584C12.3314 13.4584 13.2686 13.8749 13.9607 14.614L22.4152 23.6667M18.728 19.7181L21.6516 16.5883C21.9836 16.227 22.3864 15.9379 22.8349 15.7391C23.2835 15.5403 23.7682 15.436 24.2588 15.4327C25.2388 15.4327 26.176 15.8492 26.8661 16.5883L29.4671 19.5078M19.1302 10.0549H19.1486" stroke="#07013B" stroke-width="2" stroke-linecap="round" stroke-linejoin="round"/>
</svg>
