<svg width="30" height="30" viewBox="0 0 30 30" fill="none" xmlns="http://www.w3.org/2000/svg">
<path d="M7.94019 17.5538C7.33442 17.5547 6.73615 17.687 6.18713 17.9415C5.63811 18.196 5.15156 18.5665 4.76145 19.0272C4.37134 19.4879 4.08705 20.0276 3.92844 20.6088C3.76983 21.19 3.74072 21.7986 3.84313 22.3921C3.94554 22.9856 4.177 23.5498 4.52138 24.0452C4.86575 24.5406 5.31472 24.9553 5.83697 25.2604C6.35922 25.5656 6.94216 25.7537 7.54511 25.8118C8.14805 25.8698 8.75648 25.7963 9.32792 25.5965" stroke="#07013B" stroke-width="2" stroke-linecap="round" stroke-linejoin="round"/>
<path d="M4.14305 19.768C3.31258 19.3705 2.59474 18.7738 2.05431 18.0315C1.51389 17.2893 1.16788 16.425 1.04753 15.5166C0.927175 14.6082 1.03626 13.6843 1.36494 12.8282C1.69362 11.9722 2.23155 11.211 2.93018 10.6134M2.97181 10.5017C2.51669 9.82465 2.31722 9.0094 2.4087 8.20022C2.50018 7.39105 2.87671 6.64015 3.47164 6.08046C4.06656 5.52076 4.84151 5.18837 5.6593 5.14213C6.47708 5.09589 7.28494 5.33878 7.93988 5.8278M8.27016 5.91747C8.04878 5.44987 7.93594 4.93879 7.93998 4.42201C7.94403 3.90522 8.06485 3.39595 8.29352 2.93183C8.52219 2.46771 8.85286 2.06061 9.26109 1.74062C9.66932 1.42063 10.1447 1.19594 10.652 1.08314C11.1593 0.970351 11.6857 0.972343 12.1922 1.08897C12.6986 1.2056 13.1722 1.43389 13.578 1.75696C13.9838 2.08003 14.3113 2.48962 14.5364 2.95546C14.7615 3.42129 14.8784 3.93147 14.8785 4.44827M14.8785 4.44827V25.831M14.8785 4.44827C14.8786 3.93147 14.9955 3.42129 15.2206 2.95546C15.4457 2.48962 15.7733 2.08003 16.1791 1.75696C16.5848 1.43389 17.0584 1.2056 17.5649 1.08897C18.0713 0.972343 18.5977 0.970351 19.105 1.08314C19.6124 1.19594 20.0877 1.42063 20.496 1.74062C20.9042 2.06061 21.2349 2.46771 21.4635 2.93183C21.6922 3.39595 21.813 3.90522 21.8171 4.42201C21.8211 4.93879 21.7083 5.44987 21.4869 5.91747M14.8785 25.831C14.8785 26.5628 14.5861 27.2645 14.0656 27.782C13.5451 28.2994 12.8392 28.5901 12.1031 28.5901C11.367 28.5901 10.661 28.2994 10.1405 27.782C9.62002 27.2645 9.32761 26.5628 9.32761 25.831M14.8785 25.831C14.8785 26.5628 15.1709 27.2645 15.6914 27.782C16.2119 28.2994 16.9179 28.5901 17.654 28.5901M14.8785 7.8971C14.8785 8.99472 15.3171 10.0474 16.0979 10.8235C16.8786 11.5997 17.9376 12.0357 19.0417 12.0357M26.8269 10.6134C27.4327 11.1308 27.9188 11.7724 28.2518 12.4942C28.5848 13.2159 28.7567 14.0007 28.7558 14.7948C28.7558 15.7646 28.5046 16.6764 28.0619 17.4683M26.7852 10.5017C27.2404 9.82465 27.4398 9.0094 27.3483 8.20022C27.2569 7.39105 26.8803 6.64015 26.2854 6.08046C25.6905 5.52076 24.9155 5.18837 24.0977 5.14213C23.28 5.09589 22.4721 5.33878 21.8172 5.8278M26.6742 26.5208L28.7558 28.5901M20.4294 23.7617C20.4294 24.6764 20.795 25.5536 21.4456 26.2004C22.0962 26.8472 22.9786 27.2105 23.8988 27.2105C24.8189 27.2105 25.7013 26.8472 26.3519 26.2004C27.0026 25.5536 27.3681 24.6764 27.3681 23.7617C27.3681 22.847 27.0026 21.9698 26.3519 21.323C25.7013 20.6762 24.8189 20.3129 23.8988 20.3129C22.9786 20.3129 22.0962 20.6762 21.4456 21.323C20.795 21.9698 20.4294 22.847 20.4294 23.7617Z" stroke="#07013B" stroke-width="2" stroke-linecap="round" stroke-linejoin="round"/>
</svg>
