<svg width="32" height="32" viewBox="0 0 32 32" fill="none" xmlns="http://www.w3.org/2000/svg">
<path d="M4.91667 16H1.75L16 1.75L30.25 16H27.0833M4.91667 16V27.0833C4.91667 27.9232 5.2503 28.7286 5.84416 29.3225C6.43803 29.9164 7.24348 30.25 8.08333 30.25H23.9167C24.7565 30.25 25.562 29.9164 26.1558 29.3225C26.7497 28.7286 27.0833 27.9232 27.0833 27.0833V16" stroke="#07013B" stroke-width="2" stroke-linecap="round" stroke-linejoin="round"/>
<path d="M11.25 30.25V20.75C11.25 19.9102 11.5836 19.1047 12.1775 18.5109C12.7714 17.917 13.5768 17.5834 14.4167 17.5834H17.5833C18.4232 17.5834 19.2286 17.917 19.8225 18.5109C20.4164 19.1047 20.75 19.9102 20.75 20.75V30.25" stroke="#07013B" stroke-width="2" stroke-linecap="round" stroke-linejoin="round"/>
</svg>
