<svg width="31" height="30" viewBox="0 0 31 30" fill="none" xmlns="http://www.w3.org/2000/svg">
<path d="M29.9755 20.2947C29.8151 20.1935 29.6317 20.1345 29.4424 20.1232C29.253 20.1119 29.064 20.1486 28.8926 20.23C28.464 20.4327 27.991 20.5238 27.5177 20.4947C27.0444 20.4656 26.5861 20.3173 26.1855 20.0636C25.7849 19.8099 25.4549 19.459 25.2263 19.0436C24.9976 18.6282 24.8777 18.1617 24.8777 17.6875C24.8777 17.2133 24.9976 16.7468 25.2263 16.3313C25.4549 15.9159 25.7849 15.565 26.1855 15.3113C26.5861 15.0576 27.0444 14.9093 27.5177 14.8803C27.991 14.8512 28.464 14.9422 28.8926 15.145C29.0641 15.2264 29.2535 15.263 29.4429 15.2516C29.6324 15.2401 29.8159 15.1809 29.9764 15.0794C30.1368 14.9779 30.269 14.8375 30.3605 14.6712C30.4521 14.5049 30.5 14.3181 30.5 14.1282V8.12496C30.5 7.52823 30.2629 6.95593 29.841 6.53397C29.419 6.11202 28.8467 5.87496 28.25 5.87496H23.1565C23.1776 5.68821 23.1879 5.5004 23.1875 5.31246C23.1865 4.62103 23.0443 3.93708 22.7696 3.30256C22.4949 2.66803 22.0935 2.09632 21.59 1.62246C20.8929 0.967731 20.0245 0.523857 19.0856 0.342243C18.1466 0.160628 17.1754 0.248703 16.2844 0.596268C15.3934 0.943832 14.6191 1.53667 14.0511 2.30613C13.4832 3.07559 13.1448 3.99019 13.0751 4.94403C13.0536 5.2543 13.0602 5.56588 13.0948 5.87496H7.99998C7.40325 5.87496 6.83095 6.11202 6.40899 6.53397C5.98704 6.95593 5.74998 7.52823 5.74998 8.12496V12.6559C5.56323 12.6349 5.37542 12.6245 5.18748 12.625C4.49608 12.6261 3.81218 12.7683 3.17768 13.043C2.54318 13.3177 1.97144 13.7191 1.49748 14.2225C1.02013 14.7267 0.652565 15.3245 0.418018 15.978C0.183471 16.6315 0.0870429 17.3266 0.134828 18.0193C0.215445 19.2391 0.733716 20.3887 1.59433 21.2568C2.45495 22.1249 3.60005 22.6532 4.81905 22.7443C5.1293 22.7666 5.44095 22.76 5.74998 22.7247V27.25C5.74998 27.8467 5.98704 28.419 6.40899 28.841C6.83095 29.2629 7.40325 29.5 7.99998 29.5H28.25C28.8467 29.5 29.419 29.2629 29.841 28.841C30.2629 28.419 30.5 27.8467 30.5 27.25V21.2467C30.5001 21.0566 30.4521 20.8696 30.3603 20.7031C30.2686 20.5366 30.1362 20.3961 29.9755 20.2947ZM28.25 27.25H7.99998V21.2467C8.00005 21.0568 7.95207 20.8701 7.86052 20.7038C7.76897 20.5375 7.63682 20.397 7.47638 20.2956C7.31595 20.1941 7.13244 20.1348 6.94295 20.1234C6.75346 20.1119 6.56414 20.1486 6.39264 20.23C5.96397 20.4327 5.49099 20.5238 5.01769 20.4947C4.54438 20.4656 4.08612 20.3173 3.68549 20.0636C3.28487 19.8099 2.9549 19.459 2.72625 19.0436C2.4976 18.6282 2.37771 18.1617 2.37771 17.6875C2.37771 17.2133 2.4976 16.7468 2.72625 16.3313C2.9549 15.9159 3.28487 15.565 3.68549 15.3113C4.08612 15.0576 4.54438 14.9093 5.01769 14.8803C5.49099 14.8512 5.96397 14.9422 6.39264 15.145C6.56414 15.2264 6.75346 15.263 6.94295 15.2516C7.13244 15.2401 7.31595 15.1809 7.47638 15.0794C7.63682 14.9779 7.76897 14.8375 7.86052 14.6712C7.95207 14.5049 8.00005 14.3181 7.99998 14.1282V8.12496H14.5658C14.7556 8.12503 14.9424 8.07705 15.1087 7.9855C15.275 7.89395 15.4154 7.7618 15.5169 7.60136C15.6184 7.44093 15.6776 7.25742 15.6891 7.06793C15.7005 6.87844 15.6639 6.68912 15.5825 6.51762C15.3797 6.08895 15.2887 5.61597 15.3178 5.14267C15.3469 4.66936 15.4952 4.2111 15.7489 3.81048C16.0026 3.40985 16.3534 3.07988 16.7689 2.85123C17.1843 2.62258 17.6508 2.50269 18.125 2.50269C18.5992 2.50269 19.0657 2.62258 19.4811 2.85123C19.8965 3.07988 20.2474 3.40985 20.5011 3.81048C20.7548 4.2111 20.9031 4.66936 20.9322 5.14267C20.9613 5.61597 20.8702 6.08895 20.6675 6.51762C20.5861 6.68912 20.5494 6.87844 20.5609 7.06793C20.5724 7.25742 20.6316 7.44093 20.7331 7.60136C20.8346 7.7618 20.975 7.89395 21.1413 7.9855C21.3076 8.07705 21.4944 8.12503 21.6842 8.12496H28.25V12.6573C27.941 12.6219 27.6293 12.6153 27.319 12.6376C26.0097 12.7303 24.7876 13.328 23.9104 14.3045C23.0333 15.281 22.5697 16.5601 22.6175 17.8718C22.6653 19.1836 23.2207 20.4255 24.1666 21.3356C25.1125 22.2457 26.3749 22.7528 27.6875 22.75C27.8754 22.7504 28.0632 22.7401 28.25 22.719V27.25Z" fill="#07013B"/>
</svg>
