<svg width="37" height="49" viewBox="0 0 37 49" fill="none" xmlns="http://www.w3.org/2000/svg">
<path d="M10.8918 8.43144C10.8918 6.47999 11.6671 4.60847 13.0469 3.22858C14.4268 1.8487 16.2983 1.07349 18.2498 1.07349C20.2013 1.07349 22.0728 1.8487 23.4527 3.22858C24.8325 4.60847 25.6078 6.47999 25.6078 8.43144V20.6947C25.6078 22.6462 24.8325 24.5177 23.4527 25.8976C22.0728 27.2774 20.2013 28.0527 18.2498 28.0527C16.2983 28.0527 14.4268 27.2774 13.0469 25.8976C11.6671 24.5177 10.8918 22.6462 10.8918 20.6947V8.43144Z" stroke="#0A0146" stroke-width="2" stroke-linecap="round" stroke-linejoin="round"/>
<path d="M1.08118 20.6946C1.08118 25.248 2.89 29.6149 6.10973 32.8346C9.32946 36.0543 13.6964 37.8631 18.2497 37.8631M18.2497 37.8631C22.8031 37.8631 27.17 36.0543 30.3897 32.8346C33.6095 29.6149 35.4183 25.248 35.4183 20.6946M18.2497 37.8631V47.6737M8.43913 47.6737H28.0603" stroke="#0A0146" stroke-width="2" stroke-linecap="round" stroke-linejoin="round"/>
</svg>
