<svg width="61" height="55" viewBox="0 0 61 55" fill="none" xmlns="http://www.w3.org/2000/svg">
<path d="M23.5 28.875C30.9213 28.875 36.9375 22.8588 36.9375 15.4375C36.9375 8.01617 30.9213 2 23.5 2C16.0787 2 10.0625 8.01617 10.0625 15.4375C10.0625 22.8588 16.0787 28.875 23.5 28.875Z" stroke="#07013B" stroke-width="4" stroke-linecap="round" stroke-linejoin="round"/>
<path d="M45 50.375C45 44.6728 42.7348 39.2042 38.7028 35.1722C34.6708 31.1402 29.2022 28.875 23.5 28.875C17.7978 28.875 12.3292 31.1402 8.2972 35.1722C4.26517 39.2042 2 44.6728 2 50.375" stroke="#07013B" stroke-width="4" stroke-linecap="round" stroke-linejoin="round"/>
<path d="M51 35C45.477 35 41 39.477 41 45C41 50.523 45.477 55 51 55C56.523 55 61 50.523 61 45C61 39.477 56.523 35 51 35ZM56 46H52V50H50V46H46V44H50V40H52V44H56V46Z" fill="black"/>
</svg>
